<?xml version="1.0" encoding="iso-8859-1"?>
<!-- Generator: Adobe Illustrator 19.0.0, SVG Export Plug-In . SVG Version: 6.00 Build 0)  -->
<svg xmlns="http://www.w3.org/2000/svg" xmlns:xlink="http://www.w3.org/1999/xlink" version="1.1" id="Capa_1" x="0px" y="0px" viewBox="0 0 512 512" style="enable-background:new 0 0 512 512;" xml:space="preserve" width="512px" height="512px">
<g>
	<g>
		<path d="M301,30v30H196c0-33.084-26.916-60-60-60S76,26.916,76,60s26.916,60,60,60c22.159,0,41.537-12.084,51.928-30H301v30h180    V30H301z M136,90c-16.542,0-30-13.458-30-30s13.458-30,30-30s30,13.458,30,30S152.542,90,136,90z M451,90H331V60h120V90z" fill="#e0e0e0"/>
	</g>
</g>
<g>
	<g>
		<path d="M481,240v-90H301v30h-61.509c-6.968-34.192-37.271-60-73.491-60h-30h-30c-41.355,0-75,33.645-75,75v120    c0,19.556,12.539,36.239,30,42.43V512c21.888,0,130.458,0,150,0v-62h90v30h180v-90H301v30h-90v-62.57    c12.766-4.526,22.894-14.664,27.421-27.43H301v30h180v-90H301v30h-60c0-10.534,0-75.727,0-90h60v30H481z M331,180h120v30H331V180z     M331,420h120v30H331V420z M211,315c0,8.271-6.729,15-15,15h-15v152h-30V330h-30v152H91V330H76c-8.271,0-15-6.729-15-15V195    c0-24.813,20.187-45,45-45h60c24.813,0,45,20.187,45,45C211,216.765,211,276.849,211,315z M331,300h120v30H331V300z" fill="#e0e0e0"/>
	</g>
</g>
<g>
</g>
<g>
</g>
<g>
</g>
<g>
</g>
<g>
</g>
<g>
</g>
<g>
</g>
<g>
</g>
<g>
</g>
<g>
</g>
<g>
</g>
<g>
</g>
<g>
</g>
<g>
</g>
<g>
</g>
</svg>
