<?xml version="1.0" encoding="iso-8859-1"?>
<!-- Generator: Adobe Illustrator 19.0.0, SVG Export Plug-In . SVG Version: 6.00 Build 0)  -->
<svg xmlns="http://www.w3.org/2000/svg" xmlns:xlink="http://www.w3.org/1999/xlink" version="1.1" id="Capa_1" x="0px" y="0px" viewBox="0 0 512 512" style="enable-background:new 0 0 512 512;" xml:space="preserve" width="512px" height="512px">
<g>
	<g>
		<g>
			<path d="M111.898,0L80.521,31.376v394.302l31.376,31.376h9.46v-15.001h-3.248l-22.589-22.589V374.68l22.589-22.589h298.367v9.425     h-297.32v15.001h297.322v13.056H315.372v15.001h101.107v13.056H214.265v-13.056h74.736v-15.001H119.157v15.001h14.703v13.056     h-14.703v15.001h14.703V512l40.203-21.697L214.265,512v-79.371h202.213v9.425H226.766v15.001h204.713V0H111.898z M416.478,337.09     H111.898l-16.376,16.376V37.59L117.1,16.012v193.998H132.1V15.001h284.378V337.09z M199.265,486.858L199.265,486.858     l-25.203-13.602l-25.202,13.602v-82.285h26.341v41.114h15.001v-41.114h9.063V486.858z" fill="#e0e0e0"/>
			<rect x="245.632" y="258.182" width="101.875" height="15.001" fill="#e0e0e0"/>
			<rect x="220.63" y="258.182" width="15.001" height="15.001" fill="#e0e0e0"/>
			<rect x="195.629" y="258.182" width="15.001" height="15.001" fill="#e0e0e0"/>
			<rect x="263.802" y="292.393" width="15.001" height="15.001" fill="#e0e0e0"/>
			<rect x="238.801" y="292.393" width="15.001" height="15.001" fill="#e0e0e0"/>
			<rect x="213.8" y="292.393" width="15.001" height="15.001" fill="#e0e0e0"/>
			<rect x="313.805" y="292.393" width="15.001" height="15.001" fill="#e0e0e0"/>
			<rect x="288.803" y="292.393" width="15.001" height="15.001" fill="#e0e0e0"/>
			<rect x="387.678" y="52.252" width="15.001" height="15.001" fill="#e0e0e0"/>
			<rect x="387.678" y="27.251" width="15.001" height="15.001" fill="#e0e0e0"/>
			<rect x="387.678" y="77.253" width="15.001" height="76.003" fill="#e0e0e0"/>
			<path d="M271.568,222.51c49.864,0,90.431-40.567,90.431-90.431c0-49.864-40.567-90.431-90.431-90.431     c-49.863,0-90.431,40.567-90.431,90.431C181.137,181.943,221.703,222.51,271.568,222.51z M271.568,191.529l-8.731-25.902h17.463     L271.568,191.529z M235.77,85.33l22.723,15.914l-14.044,9.834L235.77,85.33z M241.95,150.626h-26.309l21.076-15.523     L241.95,150.626z M271.569,110.4l22.125,15.495l-8.337,24.731h-27.575l-8.337-24.731L271.569,110.4z M298.687,111.078     l-14.044-9.834l22.723-15.914L298.687,111.078z M327.494,150.626h-26.309l5.233-15.523L327.494,150.626z M282.271,206.736     l13.858-41.11H339.1C328.251,187.375,307.213,203.176,282.271,206.736z M325.269,79.177     c13.425,13.626,21.728,32.309,21.728,52.903c0.001,4.569-0.43,9.038-1.213,13.387l-34.336-25.288L325.269,79.177z      M271.568,56.649c13.372,0,25.932,3.513,36.835,9.641l-36.835,25.796L234.733,66.29     C245.635,60.162,258.196,56.649,271.568,56.649z M196.136,132.078c0.001-20.592,8.304-39.277,21.729-52.902l13.821,41.002     l-34.336,25.288C196.568,141.117,196.136,136.648,196.136,132.078z M247.007,165.626l13.858,41.11     c-24.942-3.56-45.98-19.361-56.829-41.11H247.007z" fill="#e0e0e0"/>
			<rect x="117.096" y="273.862" width="15.001" height="46.651" fill="#e0e0e0"/>
			<rect x="117.096" y="248.861" width="15.001" height="15.001" fill="#e0e0e0"/>
			<rect x="117.096" y="223.86" width="15.001" height="15.001" fill="#e0e0e0"/>
		</g>
	</g>
</g>
<g>
</g>
<g>
</g>
<g>
</g>
<g>
</g>
<g>
</g>
<g>
</g>
<g>
</g>
<g>
</g>
<g>
</g>
<g>
</g>
<g>
</g>
<g>
</g>
<g>
</g>
<g>
</g>
<g>
</g>
</svg>
